<svg width="101" height="101" viewBox="0 0 101 101" fill="none" xmlns="http://www.w3.org/2000/svg">
<g clip-path="url(#clip0_1_696)">
<path fill-rule="evenodd" clip-rule="evenodd" d="M9.92093 61.1514C15.8035 83.1055 38.3698 96.1342 60.3239 90.2516C82.278 84.369 95.3067 61.8027 89.4241 39.8486C83.5415 17.8945 60.9752 4.86584 39.0211 10.7484C17.067 16.631 4.03834 39.1973 9.92093 61.1514ZM11.6437 60.6898C10.5223 56.5044 10.2361 52.139 10.8017 47.843C11.3673 43.5469 12.7739 39.4044 14.9405 35.6518C17.107 31.8992 19.9912 28.6098 23.4289 25.972C26.8666 23.3342 30.7902 21.3993 34.9756 20.2778C39.161 19.1563 43.5265 18.8702 47.8224 19.4358C52.1185 20.0013 56.2614 21.4079 60.014 23.5744C63.7665 25.741 67.0556 28.6253 69.6934 32.063C72.3312 35.5006 74.2661 39.4242 75.3876 43.6097L87.7013 40.3102C88.8227 44.4956 89.1089 48.8611 88.5433 53.1571C87.9777 57.4531 86.5712 61.596 84.4047 65.3486C82.2381 69.1011 79.3538 72.3902 75.9161 75.028C72.4784 77.6658 68.5549 79.6007 64.3694 80.7222C60.184 81.8437 55.8186 82.1298 51.5226 81.5643C47.2265 80.9987 43.0837 79.5926 39.3312 77.426C35.5786 75.2595 32.2895 72.3747 29.6516 68.937C27.0131 65.4984 25.1005 61.5668 23.9574 57.3903L11.6437 60.6898Z" fill="#FFFF00"/>
</g>
<defs>
<clipPath id="clip0_1_696">
<rect width="101" height="101" fill="white"/>
</clipPath>
</defs>
</svg>
