<svg width="512" height="512" viewBox="0 0 512 512" fill="none" xmlns="http://www.w3.org/2000/svg">
<rect width="512" height="512" fill="black"/>
<path d="M256 128C317.856 128 368 178.144 368 240C368 301.856 317.856 352 256 352C194.144 352 144 301.856 144 240C144 178.144 194.144 128 256 128ZM256 96C176.471 96 112 160.471 112 240C112 319.529 176.471 384 256 384C335.529 384 400 319.529 400 240C400 160.471 335.529 96 256 96Z" fill="#FFFF00"/>
<path d="M256 160C299.078 160 336 196.922 336 240C336 283.078 299.078 320 256 320C212.922 320 176 283.078 176 240C176 196.922 212.922 160 256 160Z" fill="black"/>
</svg>