<svg width="481" height="102" viewBox="0 0 481 102" fill="none" xmlns="http://www.w3.org/2000/svg">
<g clip-path="url(#clip0_1_606)">
<path fill-rule="evenodd" clip-rule="evenodd" d="M9.94698 61.6792C15.8449 83.6905 38.47 96.7531 60.4813 90.8551C82.4926 84.9572 95.5552 62.3322 89.6573 40.3208C83.7594 18.3095 61.1343 5.24693 39.123 11.1448C17.1116 17.0428 4.04906 39.6678 9.94698 61.6792ZM11.6743 61.2163C10.5499 57.02 10.263 52.6432 10.83 48.336C11.3971 44.0288 12.8074 39.8755 14.9796 36.1131C17.1518 32.3508 20.0435 29.0528 23.4901 26.4081C26.9368 23.7634 30.8706 21.8235 35.0669 20.6991C39.2632 19.5747 43.6401 19.2878 47.9472 19.8548C52.2545 20.4219 56.4082 21.832 60.1705 24.0043C63.9329 26.1764 67.2305 29.0683 69.8752 32.5149C72.5199 35.9615 74.4598 39.8954 75.5842 44.0917L87.93 40.7837C89.0544 44.98 89.3412 49.3568 88.7742 53.664C88.2072 57.9712 86.797 62.1249 84.6248 65.8873C82.4526 69.6496 79.5607 72.9472 76.1141 75.5919C72.6675 78.2366 68.7337 80.1765 64.5373 81.3009C60.341 82.4253 55.9642 82.7122 51.657 82.1452C47.3498 81.5781 43.1962 80.1684 39.4338 77.9962C35.6714 75.824 32.3738 72.9317 29.7291 69.4851C27.0836 66.0375 25.1661 62.0957 24.02 57.9083L11.6743 61.2163Z" fill="#FFFF00"/>
</g>
<path d="M120.964 82.3726V35.1416H127.659L127.931 46.9946L126.121 47.266C127.026 45.0341 128.443 42.9229 130.374 40.9323C132.364 38.9418 134.777 37.3131 137.612 36.0464C140.447 34.7193 143.493 34.0558 146.751 34.0558C151.033 34.0558 154.592 34.8701 157.427 36.4988C160.323 38.1274 162.494 40.4799 163.942 43.5563C165.45 46.5723 166.204 50.1312 166.204 54.233V82.3726H159.328V54.9569C159.328 51.9408 158.724 49.3471 157.518 47.1755C156.311 45.004 154.623 43.3452 152.451 42.1991C150.34 40.9927 147.867 40.3895 145.032 40.3895C142.498 40.3895 140.176 40.8419 138.065 41.7467C135.953 42.6515 134.114 43.8277 132.545 45.2754C131.037 46.7231 129.861 48.3216 129.016 50.0709C128.172 51.8202 127.75 53.6298 127.75 55.4998V82.3726H124.402C123.738 82.3726 123.105 82.3726 122.502 82.3726C121.959 82.3726 121.446 82.3726 120.964 82.3726Z" fill="#FFFF00"/>
<path d="M180.64 82.3726V35.1416H187.517V82.3726H180.64ZM183.988 24.5553C182.359 24.5553 181.092 24.133 180.188 23.2886C179.283 22.3837 178.83 21.1773 178.83 19.6693C178.83 18.1613 179.283 16.9549 180.188 16.0501C181.153 15.1453 182.419 14.6929 183.988 14.6929C185.677 14.6929 186.944 15.1453 187.788 16.0501C188.693 16.8946 189.145 18.101 189.145 19.6693C189.145 21.117 188.693 22.2933 187.788 23.1981C186.883 24.1029 185.616 24.5553 183.988 24.5553Z" fill="#FFFF00"/>
<path d="M201.023 82.3726V35.1416H207.809L207.99 47.7184L205.999 47.447C206.482 45.758 207.357 44.1293 208.623 42.561C209.95 40.9323 211.549 39.4846 213.419 38.2179C215.349 36.9512 217.49 35.9559 219.843 35.232C222.196 34.5082 224.729 34.1463 227.443 34.1463C230.399 34.1463 233.083 34.6288 235.496 35.594C237.969 36.4988 239.99 38.0671 241.558 40.299C243.127 42.4705 244.273 45.3357 244.997 48.8947L242.825 47.8089L243.187 46.4517C243.911 45.0643 244.936 43.6468 246.263 42.1991C247.59 40.7514 249.159 39.4243 250.968 38.2179C252.838 37.0115 254.919 36.0464 257.212 35.3225C259.504 34.5383 261.947 34.1463 264.541 34.1463C268.703 34.1463 272.141 34.9908 274.855 36.6797C277.57 38.3084 279.56 40.6609 280.827 43.7372C282.154 46.7533 282.818 50.3122 282.818 54.414V82.3726H275.941V55.1378C275.941 52.1218 275.459 49.528 274.493 47.3565C273.528 45.1246 272.081 43.4356 270.15 42.2895C268.22 41.0831 265.898 40.4799 263.183 40.4799C260.65 40.4799 258.297 40.9323 256.126 41.8371C253.954 42.6816 252.054 43.8277 250.426 45.2754C248.797 46.7231 247.53 48.3819 246.625 50.2519C245.721 52.1218 245.268 54.1124 245.268 56.2236V82.3726H238.392V55.0474C238.392 52.0916 237.879 49.528 236.853 47.3565C235.828 45.1246 234.29 43.4356 232.239 42.2895C230.248 41.0831 227.745 40.4799 224.729 40.4799C222.376 40.4799 220.145 40.9323 218.033 41.8371C215.922 42.742 214.113 43.9182 212.605 45.3659C211.097 46.8136 209.92 48.4423 209.076 50.2519C208.292 52.0012 207.9 53.7806 207.9 55.5902V82.3726H201.023Z" fill="#FFFF00"/>
<path d="M322.39 83.2774C319.616 83.2774 316.962 82.9155 314.428 82.1916C311.955 81.4678 309.723 80.4725 307.732 79.2058C305.742 77.939 304.053 76.4913 302.666 74.8627C301.338 73.234 300.373 71.5149 299.77 69.7053L302.485 70.1577L302.213 82.2821H295.518V15.4167H302.304V46.5422L300.223 47.266C300.765 45.4564 301.7 43.7674 303.027 42.1991C304.415 40.6307 306.104 39.2434 308.094 38.0369C310.085 36.7702 312.287 35.8051 314.7 35.1416C317.173 34.4177 319.797 34.0558 322.571 34.0558C327.397 34.0558 331.71 35.1114 335.51 37.2226C339.371 39.3338 342.417 42.2292 344.649 45.9088C346.941 49.5883 348.087 53.841 348.087 58.6666C348.087 63.3716 346.971 67.594 344.739 71.3339C342.507 75.0135 339.461 77.939 335.601 80.1106C331.74 82.2218 327.337 83.2774 322.39 83.2774ZM321.576 76.7628C325.437 76.7628 328.845 75.9786 331.8 74.4103C334.756 72.8419 337.078 70.7006 338.767 67.9861C340.456 65.2114 341.301 62.0747 341.301 58.5761C341.301 55.0775 340.426 51.971 338.677 49.2566C336.988 46.5422 334.666 44.4008 331.71 42.8324C328.815 41.2641 325.467 40.4799 321.667 40.4799C317.685 40.4799 314.187 41.2943 311.171 42.9229C308.155 44.4913 305.802 46.6326 304.113 49.3471C302.424 52.0012 301.58 55.0775 301.58 58.5761C301.58 62.135 302.424 65.2717 304.113 67.9861C305.863 70.7006 308.245 72.8419 311.261 74.4103C314.277 75.9786 317.716 76.7628 321.576 76.7628Z" fill="#FFFF00"/>
<path d="M378.264 83.3253C374.102 83.3253 370.573 82.4808 367.678 80.7918C364.782 79.0425 362.55 76.5694 360.982 73.3724C359.474 70.1754 358.72 66.345 358.72 61.8813V35.1894H365.506V60.1622C365.506 63.7211 366.049 66.7371 367.135 69.2102C368.22 71.6834 369.849 73.5533 372.021 74.8201C374.192 76.0868 376.846 76.7202 379.983 76.7202C382.396 76.7202 384.658 76.3281 386.769 75.5439C388.941 74.6994 390.811 73.5835 392.379 72.1961C394.008 70.7484 395.274 69.0594 396.179 67.1292C397.084 65.1989 397.536 63.148 397.536 60.9765V35.1894H404.413V82.4205H397.627L397.355 71.7437L398.532 71.2008C397.808 73.1914 396.481 75.1217 394.55 76.9916C392.62 78.8615 390.237 80.3997 387.402 81.6061C384.567 82.7522 381.521 83.3253 378.264 83.3253Z" fill="#FFFF00"/>
<path d="M436.572 83.3253C431.626 83.3253 427.132 82.5713 423.091 81.0632C419.109 79.5552 415.912 77.3837 413.5 74.5486L418.295 70.2055C420.406 72.4977 423 74.247 426.076 75.4534C429.153 76.6598 432.531 77.2631 436.21 77.2631C438.02 77.2631 439.769 77.1424 441.458 76.9011C443.147 76.6598 444.655 76.2376 445.982 75.6344C447.309 75.0312 448.365 74.2772 449.149 73.3724C449.933 72.4072 450.325 71.2611 450.325 69.9341C450.325 67.8229 448.998 66.1339 446.344 64.8672C445.017 64.3243 443.388 63.7814 441.458 63.2385C439.588 62.6956 437.387 62.1829 434.853 61.7003C431.113 60.8558 427.886 60.0415 425.172 59.2573C422.457 58.4129 420.286 57.3271 418.657 56C417.39 54.9746 416.425 53.7682 415.762 52.3808C415.158 50.9934 414.857 49.4251 414.857 47.6758C414.857 45.6249 415.37 43.7851 416.395 42.1565C417.42 40.5278 418.838 39.0801 420.648 37.8134C422.517 36.5466 424.689 35.6117 427.162 35.0085C429.635 34.4053 432.32 34.1037 435.215 34.1037C437.809 34.1037 440.433 34.4053 443.087 35.0085C445.801 35.5513 448.365 36.426 450.778 37.6324C453.251 38.7785 455.302 40.1659 456.93 41.7945L453.04 46.4995C451.532 45.2931 449.813 44.1772 447.882 43.1517C446.012 42.1263 443.992 41.3421 441.82 40.7992C439.709 40.196 437.598 39.8944 435.486 39.8944C433.737 39.8944 432.048 40.0452 430.419 40.3468C428.851 40.6484 427.403 41.131 426.076 41.7945C424.749 42.4581 423.694 43.2724 422.91 44.2375C422.186 45.1423 421.824 46.1678 421.824 47.3139C421.884 48.2187 422.125 49.033 422.548 49.7568C422.97 50.4807 423.633 51.1141 424.538 51.6569C425.684 52.4411 427.313 53.1348 429.424 53.738C431.535 54.2809 434.009 54.8539 436.844 55.4571C439.98 56 442.815 56.6334 445.349 57.3572C447.943 58.0811 450.054 58.9557 451.683 59.9812C453.552 61.067 454.94 62.3639 455.845 63.8719C456.749 65.3799 457.202 67.1292 457.202 69.1198C457.202 72.0152 456.327 74.5486 454.578 76.7202C452.829 78.8314 450.386 80.46 447.249 81.6061C444.112 82.7522 440.553 83.3253 436.572 83.3253Z" fill="#FFFF00"/>
<defs>
<clipPath id="clip0_1_606">
<rect width="101.263" height="101.263" fill="white" transform="translate(0 0.368408)"/>
</clipPath>
</defs>
</svg>
